<?xml version="1.0" encoding="iso-8859-1"?>
<!-- Generator: Adobe Illustrator 19.0.1, SVG Export Plug-In . SVG Version: 6.00 Build 0)  -->
<svg version="1.1" id="Layer_1" xmlns="http://www.w3.org/2000/svg" xmlns:xlink="http://www.w3.org/1999/xlink" x="0px" y="0px"
	 viewBox="0 0 128 128" style="enable-background:new 0 0 128 128;" xml:space="preserve">
<g id="_x34_">
	<polygon style="fill:#231F20;" points="25.387,128 20.648,70.844 19.217,80.21 12.67,72.131 0,72.131 0,67.565 14.893,67.565 
		16.22,69.201 22.009,31.287 26.328,83.368 29.72,0 34.72,0 39.405,66.836 42.87,57.532 46.235,66.17 52.416,50.832 55.973,68.383 
		60.616,56.224 64.432,72.106 68.474,45.715 74.655,66.465 79.318,57.921 82.974,71.046 87.908,37.663 94.432,69.858 97.971,64.181 
		102.807,68.012 104.986,65.622 128,65.622 128,70.188 107.047,70.188 103.319,74.274 99.164,70.981 92.203,82.144 88.622,64.469 
		84.366,93.262 77.917,70.117 73.393,78.412 69.926,66.779 65.438,96.086 59.607,71.814 54.605,84.914 50.943,66.843 46.163,78.706 
		42.967,70.506 36.785,87.109 31.916,38.434 30.006,127.862 	"/>
</g>
<g id="Layer_1_1_">
</g>
</svg>
